<svg width="64" height="64" viewBox="0 0 64 64" fill="none" xmlns="http://www.w3.org/2000/svg">
  <defs>
    <linearGradient id="bg" x1="10" y1="10" x2="56" y2="56" gradientUnits="userSpaceOnUse">
      <stop stop-color="#0F172A" />
      <stop offset="0.55" stop-color="#0B7285" />
      <stop offset="1" stop-color="#22C55E" />
    </linearGradient>
    <linearGradient id="fg" x1="16" y1="18" x2="48" y2="48" gradientUnits="userSpaceOnUse">
      <stop stop-color="#FFFFFF" />
      <stop offset="1" stop-color="#DBEAFE" />
    </linearGradient>
  </defs>
  <rect width="64" height="64" rx="18" fill="url(#bg)" />
  <path
    d="M18 46V18H29.3C33.1 18 36.2 18.8 38.2 20.5C40.2 22.2 41.2 24.7 41.2 27.8C41.2 30 40.7 31.9 39.7 33.3C38.8 34.8 37.5 35.9 35.8 36.6L45 46H36.6L28.8 37.5H24.7V46H18ZM24.7 31.8H29C30.9 31.8 32.3 31.5 33.2 30.8C34.1 30.1 34.6 29.1 34.6 27.8C34.6 26.6 34.1 25.6 33.2 24.9C32.3 24.2 30.9 23.8 29 23.8H24.7V31.8Z"
    fill="url(#fg)"
  />
  <path
    d="M44 18L48 22V46H41.6V24.4L44 18Z"
    fill="#FFFFFF"
    opacity="0.92"
  />
</svg>
